<svg width="100" height="145" viewBox="0 0 100 145" fill="none" xmlns="http://www.w3.org/2000/svg">
  <defs>
    <linearGradient id="bg" x1="0%" y1="0%" x2="70%" y2="100%">
      <stop offset="0%" style="stop-color:#1e6e4a"/>
      <stop offset="100%" style="stop-color:#145035"/>
    </linearGradient>
    <linearGradient id="header" x1="0%" y1="0%" x2="100%" y2="0%">
      <stop offset="0%" style="stop-color:#4eca8b"/>
      <stop offset="100%" style="stop-color:#27ae60"/>
    </linearGradient>
  </defs>

  <!-- Icon -->
  <g transform="translate(15, 0)">
    <rect x="0" y="0" width="70" height="79" rx="12" fill="url(#bg)"/>
    <rect x="0" y="0" width="70" height="79" rx="12" fill="none" stroke="#4eca8b" stroke-width="2"/>
    <rect x="7.5" y="7.5" width="55" height="20" rx="6" fill="url(#header)"/>
    <circle cx="17" cy="17.5" r="4" fill="rgba(255,255,255,0.85)"/>
    <rect x="10" y="35" width="32.5" height="2.5" rx="1.25" fill="#4eca8b" opacity="0.4"/>
    <rect x="10" y="43" width="50" height="2.5" rx="1.25" fill="#4eca8b" opacity="0.4"/>
    <rect x="10" y="51" width="25" height="2.5" rx="1.25" fill="#4eca8b" opacity="0.4"/>
    <rect x="10" y="59" width="40" height="2.5" rx="1.25" fill="#4eca8b" opacity="0.4"/>
  </g>

  <!-- Connector -->
  <line x1="50" y1="82" x2="50" y2="90" stroke="#27ae60" stroke-width="2" stroke-dasharray="4 3" opacity="0.5"/>

  <!-- Timeline -->
  <g transform="translate(15, 95)">
    <line x1="0" y1="18" x2="70" y2="18" stroke="#27ae60" stroke-width="4" stroke-linecap="round"/>
    <circle cx="10" cy="18" r="8" fill="#27ae60"/>
    <text x="10" y="42" fill="#27ae60" font-family="JetBrains Mono, monospace" font-size="9" text-anchor="middle" font-weight="500">D0</text>
    <circle cx="38" cy="18" r="8" fill="#27ae60"/>
    <text x="38" y="42" fill="#27ae60" font-family="JetBrains Mono, monospace" font-size="9" text-anchor="middle" font-weight="500">D1</text>
    <circle cx="62" cy="18" r="11" fill="#27ae60"/>
    <circle cx="62" cy="18" r="5.5" fill="#fff"/>
    <text x="62" y="42" fill="#1e8e50" font-family="JetBrains Mono, monospace" font-size="9" text-anchor="middle" font-weight="600">D2</text>
    <path d="M62 2 L57 -4 L67 -4 Z" fill="#27ae60"/>
  </g>
</svg>
